# xmcd CD database file
#
# Track frame offsets:
#	200
#	14420
#	36660
#	54052
#	70120
#	89040
#	112087
#	133472
#	149665
#	166670
#	185920
#	205110
#	221242
#	239260
#	260555
#	290912
#	313442
#
# Disc length: 4465 seconds
#
# Revision: 0
# Processed by: cddbd v1.5PL3 Copyright (c) Steve Scherf et al.
# Submitted via: CDex 1.51
#
DISCID=22116f11
DTITLE=Johnny Adams - Best of New Orleans Rhythm and Blues - Vol. 1
DYEAR=1994
DGENRE=Blues
TTITLE0=Tell It like It is
TTITLE1=Who will the Next Fool be?
TTITLE2=Stay with Me
TTITLE3=Hell Yes, I Cheated
TTITLE4=Baby Love
TTITLE5=I'll Never Fall in Love Again
TTITLE6=Your Love is All I Need
TTITLE7=Share Your Love
TTITLE8=Don't Let the Green Grass Fool You
TTITLE9=Nothing Takes the Place of You
TTITLE10=Give Me a Chance
TTITLE11=I only Want to be with You
TTITLE12=Love Me Now
TTITLE13=One Fine Day
TTITLE14=Stand by Me
TTITLE15=Our Day will Come
TTITLE16=Spanish Harlem
EXTD=YEAR: 1994
EXTT0=
EXTT1=
EXTT2=
EXTT3=
EXTT4=
EXTT5=
EXTT6=
EXTT7=
EXTT8=
EXTT9=
EXTT10=
EXTT11=
EXTT12=
EXTT13=
EXTT14=
EXTT15=
EXTT16=
PLAYORDER=
